<svg id="Layer_1" data-name="Layer 1" xmlns="http://www.w3.org/2000/svg" viewBox="0 0 482.73 136.78"><defs><style>.cls-1{fill:#171717;}</style></defs><title>Artboard 2</title><path class="cls-1" d="M117.41,44.21c-5.6,4-9.66,6.79-15.09,10.53a2.78,2.78,0,0,1-2.34-.06c-10.5-5-22.24-10.72-32.67-15.85l.08,4.35c1.84,1.09,3.54,2,5.18,3.09,3,1.91,5.86,4.07,9,5.78,2.31,1.26,2.31,2.63,1.55,4.84C78.59,70,74.23,83.13,69.83,96.26a2,2,0,0,0,.1,1.69L120.78,45.5Z"/><path class="cls-1" d="M135.84,59h5.38c3.35,0,5.89,1,7.64,2.84s2.63,4.58,2.63,8.06-.88,6.2-2.63,8.15-4.26,2.92-7.54,2.92h-5.48ZM141,78.9A7.32,7.32,0,0,0,147,76.54a10.08,10.08,0,0,0,2-6.67,9.77,9.77,0,0,0-2-6.55A7.42,7.42,0,0,0,141,61h-2.71V78.9Z"/><path class="cls-1" d="M166.71,74h-8.2l-2.24,6.92h-2.51l7.53-22H164l7.49,22h-2.61Zm-.64-2-1.14-3.55c-.89-2.79-1.65-5.27-2.27-7.46h-.14q-1.1,4.05-2.24,7.46l-1.13,3.55Z"/><path class="cls-1" d="M175.43,59H178l8.29,14.25,2.41,4.51h.13l-.1-1.47c0-.36-.07-1.11-.13-2.26s-.1-2.19-.1-3.12V59h2.34v22h-2.54L180,66.7l-2.41-4.52h-.13l.1,1.61c.16,1.94.24,3.64.24,5.11v12h-2.35Z"/><path class="cls-1" d="M200.93,80A9.22,9.22,0,0,1,197.56,76a15.53,15.53,0,0,1,0-12.09A9.3,9.3,0,0,1,201,60a9.11,9.11,0,0,1,5-1.39,7.49,7.49,0,0,1,3.38.77,8.82,8.82,0,0,1,2.57,1.9l-1.37,1.64A5.9,5.9,0,0,0,206,60.74a6.43,6.43,0,0,0-3.74,1.12A7.29,7.29,0,0,0,199.8,65a12.24,12.24,0,0,0-.89,4.87,13.12,13.12,0,0,0,.85,4.9A7.15,7.15,0,0,0,202.21,78a6.2,6.2,0,0,0,3.72,1.14,6,6,0,0,0,2.8-.64,8.59,8.59,0,0,0,2.42-1.9l1.37,1.54a9.28,9.28,0,0,1-3,2.37,8.3,8.3,0,0,1-3.72.8A8.91,8.91,0,0,1,200.93,80Z"/><path class="cls-1" d="M217.41,59h2.47v22h-2.47Z"/><path class="cls-1" d="M226.7,59h2.54l8.3,14.25L240,77.73h.13l-.1-1.47c0-.36-.07-1.11-.13-2.26s-.1-2.19-.1-3.12V59h2.34v22h-2.55L231.25,66.7l-2.41-4.52h-.13l.1,1.61c.16,1.94.23,3.64.23,5.11v12H226.7Z"/><path class="cls-1" d="M252.3,80A9.2,9.2,0,0,1,248.84,76,14,14,0,0,1,247.6,70a13.62,13.62,0,0,1,1.27-6,9.32,9.32,0,0,1,3.55-4,9.7,9.7,0,0,1,5.18-1.39,8.45,8.45,0,0,1,6.26,2.67l-1.37,1.64a6.41,6.41,0,0,0-4.82-2.14,7,7,0,0,0-4,1.12A7.24,7.24,0,0,0,251.1,65a11.73,11.73,0,0,0-.92,4.87,10.65,10.65,0,0,0,2,6.77,6.62,6.62,0,0,0,5.49,2.49,7.54,7.54,0,0,0,2.37-.38,5.29,5.29,0,0,0,1.84-1v-6H257V69.7h7.09v9.1a7.72,7.72,0,0,1-2.84,1.86,10.43,10.43,0,0,1-3.88.68A9.45,9.45,0,0,1,252.3,80Z"/><path class="cls-1" d="M275.3,59h2.57l2.41,12.21,1.34,7.12h.13c.33-1.58.86-4,1.57-7.12L286.5,59h2.27l3.15,12.21c.26,1.2.48,2.1.63,2.71l1,4.41h.13l.37-2q.57-3.18.93-5.15L297.4,59h2.41l-4.65,22h-2.94l-3.51-13.68c-.09-.42-.18-.8-.25-1.13s-.14-.63-.19-.87c-.18-.81-.39-1.8-.63-3h-.14l-1.14,5L283,80.94H280Z"/><path class="cls-1" d="M303.39,59h2.47v22h-2.47Z"/><path class="cls-1" d="M316.26,61.08h-6.75V59h15.95v2.11h-6.72V80.94h-2.48Z"/><path class="cls-1" d="M329.14,59h2.47v9.3h10.6V59h2.48v22h-2.48V70.44h-10.6v10.5h-2.47Z"/><path class="cls-1" d="M360.29,80a9.27,9.27,0,0,1-3.63-3.83,14.29,14.29,0,0,1,0-12.17,9.76,9.76,0,0,1,3.71-4,10,10,0,0,1,5.11-1.37,8.25,8.25,0,0,1,3.63.79,9.72,9.72,0,0,1,2.86,2l-2.44,2.94a7,7,0,0,0-1.85-1.32,5.09,5.09,0,0,0-5,.44,5.83,5.83,0,0,0-2,2.54A9.6,9.6,0,0,0,360,70a8.81,8.81,0,0,0,1.49,5.42,4.76,4.76,0,0,0,4,2,5.71,5.71,0,0,0,4.38-2.1l2.44,2.87a8.79,8.79,0,0,1-7,3.21A10.13,10.13,0,0,1,360.29,80Z"/><path class="cls-1" d="M387.3,80.94,383,72.85H380v8.09h-4.58V59.1h7.69a10.41,10.41,0,0,1,6.05,1.56c1.5,1,2.24,2.75,2.24,5.13a6.83,6.83,0,0,1-1.07,3.93,6.3,6.3,0,0,1-3,2.36l5.05,8.86ZM380,69.2h2.71a4.94,4.94,0,0,0,3.14-.85A3.08,3.08,0,0,0,387,65.79a2.6,2.6,0,0,0-1-2.34,5.71,5.71,0,0,0-3.17-.7H380Z"/><path class="cls-1" d="M395.39,59.1h5.05l3.64,10c.34,1,.63,1.87.87,2.74l.44,1.37h.13l.6-1.91c.36-1.2.59-1.94.71-2.2l3.54-10h5.05V80.94h-4.18V72.28q0-1.84.44-6l.13-1.31h-.13l-1.78,5.12L406.66,79h-2.61l-3.24-8.86L399.07,65h-.14l.14,1.31q.44,4.11.43,6v8.66h-4.11Z"/></svg>