<?xml version="1.0" standalone="no"?>
<!DOCTYPE svg PUBLIC "-//W3C//DTD SVG 20010904//EN"
 "http://www.w3.org/TR/2001/REC-SVG-20010904/DTD/svg10.dtd">
<svg version="1.0" xmlns="http://www.w3.org/2000/svg"
 width="700.000000pt" height="700.000000pt" viewBox="0 0 700.000000 700.000000"
 preserveAspectRatio="xMidYMid meet">
<metadata>
Created by potrace 1.11, written by Peter Selinger 2001-2013
</metadata>
<g transform="translate(0.000000,700.000000) scale(0.100000,-0.100000)"
fill="#000000" stroke="none">
<path d="M2165 4872 c1 -54 5 -103 8 -109 4 -6 48 -34 99 -64 51 -29 190 -117
308 -194 118 -78 240 -156 270 -173 30 -17 70 -45 88 -63 57 -55 52 -87 -72
-450 -57 -167 -140 -414 -185 -549 -45 -135 -86 -254 -91 -265 -18 -43 -303
-911 -306 -931 -1 -12 2 -27 7 -35 6 -11 32 11 105 86 53 55 200 207 328 339
127 131 269 278 316 326 47 48 191 197 320 330 129 134 266 275 304 314 147
153 549 568 712 735 358 368 449 463 452 471 2 4 -10 12 -25 18 -15 6 -51 20
-79 31 l-51 20 -49 -33 c-27 -17 -161 -111 -299 -207 -455 -319 -415 -294
-465 -293 -34 0 -74 14 -160 56 -63 30 -171 83 -240 116 -246 118 -522 252
-1092 531 -103 50 -191 91 -195 91 -5 0 -9 -44 -8 -98z"/>
</g>
</svg>
